<svg width="32" height="32" viewBox="0 0 32 32" fill="none" xmlns="http://www.w3.org/2000/svg">
<path d="M19.2619 22.4088C19.2619 22.4088 21.7926 20.9579 22.4539 20.6091C23.1152 20.2604 23.7988 20.1739 24.2145 20.4278C24.8451 20.8128 30.1296 24.3284 30.5733 24.6381C31.0197 24.9506 31.2318 25.8407 30.6207 26.714C30.0125 27.5873 27.2 31.036 26.0086 30.9997C24.8172 30.9607 19.8563 30.8518 10.5008 21.4964C1.151 12.141 1.03939 7.18009 1.00033 5.9859C0.961266 4.7945 4.4127 1.98201 5.28323 1.37097C6.15934 0.76271 7.0494 0.991504 7.35911 1.42119C7.71346 1.90947 11.1872 7.1773 11.5695 7.77997C11.8317 8.19292 11.7369 8.88209 11.3853 9.54336C11.0393 10.2046 9.59124 12.7353 9.59124 12.7353C9.59124 12.7353 10.6124 14.4764 14.0639 17.9306C17.5209 21.3848 19.2619 22.4088 19.2619 22.4088Z" stroke="#339935" stroke-width="1.2" stroke-miterlimit="10"/>
</svg>
