<svg width="32" height="32" viewBox="0 0 32 32" fill="none" xmlns="http://www.w3.org/2000/svg">
<path d="M19.261 22.4088C19.261 22.4088 21.7917 20.9579 22.4529 20.6091C23.1142 20.2604 23.7978 20.1739 24.2135 20.4278C24.8441 20.8128 30.1287 24.3284 30.5723 24.6381C31.0187 24.9506 31.2308 25.8407 30.6197 26.714C30.0115 27.5873 27.199 31.036 26.0076 30.9997C24.8162 30.9607 19.8553 30.8518 10.4999 21.4964C1.15002 12.141 1.03842 7.18009 0.999352 5.9859C0.96029 4.7945 4.41172 1.98201 5.28225 1.37097C6.15836 0.76271 7.04843 0.991504 7.35814 1.42119C7.71249 1.90947 11.1862 7.1773 11.5685 7.77997C11.8308 8.19292 11.7359 8.88209 11.3843 9.54336C11.0384 10.2046 9.59027 12.7353 9.59027 12.7353C9.59027 12.7353 10.6115 14.4764 14.0629 17.9306C17.5199 21.3848 19.261 22.4088 19.261 22.4088Z" stroke="#339935" stroke-width="1.2" stroke-miterlimit="10"/>
<path d="M28.0767 2.42844H17.4908C16.6705 2.42844 15.998 3.10366 15.998 3.92954V10.9998C15.998 11.8257 16.6063 12.4284 17.4266 12.4284H19.5695C19.5695 13.8569 19.2625 14.6103 18.1409 15.2855C19.6727 15.2855 21.6063 14.6773 22.4266 12.4284H28.1408C28.9611 12.4284 29.5694 11.8257 29.5694 10.9998V3.92954C29.5694 3.10366 28.897 2.42844 28.0767 2.42844Z" stroke="#339935" stroke-width="1.2" stroke-miterlimit="10" stroke-linejoin="round"/>
</svg>
