<svg width="30" height="30" viewBox="0 0 30 30" fill="none" xmlns="http://www.w3.org/2000/svg">
<path d="M29.9999 26.708C29.9999 28.5256 28.5256 29.9999 26.708 29.9999H9.60629C7.78866 29.9999 6.31738 28.5256 6.31738 26.708V9.60629C6.31738 7.78866 7.78866 6.31738 9.60629 6.31738H26.711C28.5256 6.31738 29.9999 7.78866 29.9999 9.60629V26.708Z" fill="#8EC38F"/>
<path d="M23.6825 20.3937C23.6825 22.2113 22.2112 23.6826 20.3936 23.6826H3.29186C1.47423 23.6826 0 22.2113 0 20.3937V3.29199C0 1.47436 1.47423 0.00012207 3.29186 0.00012207H20.3936C22.2112 0.00012207 23.6825 1.47436 23.6825 3.29199V20.3937Z" fill="#C8E6C9"/>
<path d="M10.2627 18.2534L4.78613 12.7798L6.46167 11.1043L10.2627 14.9053L18.8002 6.3678L20.4758 8.04333L10.2627 18.2534Z" fill="#339935"/>
</svg>
