<svg width="324" height="38" viewBox="0 0 324 38" fill="none" xmlns="http://www.w3.org/2000/svg">
<rect x="67.5" y="0.5" width="55" height="37" rx="3.5" fill="white" stroke="#F3F3F3"/>
<path d="M100.127 27.5277H90.133V9.98663H100.127V27.5277Z" fill="#FF5F00"/>
<path d="M90.7732 18.7557C90.7732 15.1974 92.4791 12.0278 95.1357 9.98518C93.193 8.49151 90.7413 7.59999 88.0767 7.59999C81.7686 7.59999 76.6552 12.5945 76.6552 18.7557C76.6552 24.9169 81.7686 29.9114 88.0767 29.9114C90.7413 29.9114 93.193 29.0199 95.1357 27.5262C92.4791 25.4836 90.7732 22.314 90.7732 18.7557" fill="#EB001B"/>
<path d="M113.606 18.7557C113.606 24.9169 108.493 29.9114 102.185 29.9114C99.52 29.9114 97.0682 29.0199 95.1248 27.5262C97.7821 25.4836 99.488 22.314 99.488 18.7557C99.488 15.1974 97.7821 12.0278 95.1248 9.98518C97.0682 8.49151 99.52 7.59999 102.185 7.59999C108.493 7.59999 113.606 12.5945 113.606 18.7557" fill="#F79E1B"/>
<rect x="0.5" y="0.5" width="55" height="37" rx="3.5" fill="white" stroke="#F3F3F3"/>
<path d="M24.8636 26.0616H21.1353L23.4673 12.7609H27.1954L24.8636 26.0616Z" fill="#15195A"/>
<path d="M38.3792 13.086C37.6438 12.8169 36.4774 12.5198 35.0352 12.5198C31.3533 12.5198 28.7606 14.3308 28.7447 16.9201C28.7141 18.8305 30.601 19.8915 32.0123 20.5285C33.4547 21.1794 33.945 21.6042 33.945 22.1844C33.9304 23.0755 32.7795 23.4862 31.7061 23.4862C30.2175 23.4862 29.42 23.2744 28.2079 22.7787L27.717 22.5662L27.1952 25.5519C28.0697 25.9194 29.6807 26.2455 31.3533 26.2598C35.2654 26.2598 37.8122 24.4767 37.8424 21.7174C37.8573 20.2033 36.8609 19.0432 34.7129 18.0951C33.4088 17.4866 32.6103 17.0762 32.6103 16.4535C32.6255 15.8874 33.2857 15.3076 34.7577 15.3076C35.9698 15.2792 36.8603 15.548 37.5349 15.8169L37.8722 15.9582L38.3792 13.086V13.086V13.086Z" fill="#15195A"/>
<path fill-rule="evenodd" clip-rule="evenodd" d="M45.0527 12.7609H47.9366L50.9444 26.0614H47.4924C47.4924 26.0614 47.1545 24.5332 47.0475 24.0662H42.2606C42.1222 24.4198 41.4781 26.0614 41.4781 26.0614H37.5661L43.1041 13.8645C43.4878 13.0013 44.1634 12.7609 45.0527 12.7609ZM44.823 17.6282C44.823 17.6282 43.6415 20.5855 43.3344 21.3496H46.4334C46.2801 20.6846 45.574 17.5009 45.574 17.5009L45.3135 16.3548C45.2038 16.65 45.0451 17.0557 44.9381 17.3294C44.8655 17.5149 44.8167 17.6397 44.823 17.6282Z" fill="#15195A"/>
<path fill-rule="evenodd" clip-rule="evenodd" d="M4.98098 12.7609H10.9795C11.7926 12.7889 12.4523 13.0295 12.667 13.879L13.9707 19.9902C13.9708 19.9905 13.9709 19.9909 13.971 19.9913L14.37 21.8307L18.0213 12.7609H21.9637L16.1034 26.0475H12.1608L8.83771 14.4904C7.69116 13.8721 6.38263 13.3748 4.91962 13.0297L4.98098 12.7609Z" fill="#15195A"/>
<rect x="134.5" y="0.5" width="55" height="37" rx="3.5" fill="white" stroke="#F3F3F3"/>
<path fill-rule="evenodd" clip-rule="evenodd" d="M150.971 14.1802C150.564 14.6597 149.912 15.0379 149.26 14.9839C149.179 14.3355 149.498 13.6467 149.871 13.2212C150.279 12.7282 150.991 12.377 151.568 12.35C151.636 13.0253 151.372 13.6872 150.971 14.1802ZM151.562 15.1122C150.987 15.0793 150.464 15.284 150.04 15.4493C149.768 15.5556 149.538 15.6457 149.362 15.6457C149.165 15.6457 148.925 15.5508 148.655 15.4443C148.302 15.3047 147.898 15.145 147.475 15.1527C146.504 15.1662 145.601 15.7132 145.106 16.5845C144.087 18.3269 144.841 20.9067 145.825 22.325C146.307 23.0273 146.884 23.7973 147.645 23.7702C147.979 23.7577 148.22 23.6561 148.469 23.551C148.755 23.43 149.053 23.3042 149.518 23.3042C149.967 23.3042 150.252 23.4267 150.525 23.5442C150.785 23.656 151.035 23.7633 151.406 23.7567C152.193 23.7432 152.689 23.0544 153.171 22.352C153.691 21.5982 153.919 20.8625 153.954 20.7508L153.958 20.7379C153.957 20.7371 153.951 20.7341 153.939 20.729C153.766 20.6498 152.437 20.0445 152.424 18.4214C152.411 17.0591 153.478 16.3688 153.646 16.2602C153.656 16.2536 153.663 16.2491 153.666 16.2468C152.987 15.2473 151.928 15.1392 151.562 15.1122ZM157.013 23.6824V13.1536H160.984C163.035 13.1536 164.467 14.5584 164.467 16.6115C164.467 18.6645 163.008 20.0828 160.93 20.0828H158.656V23.6824H157.013ZM158.656 14.5314H160.55C161.976 14.5314 162.79 15.2878 162.79 16.6182C162.79 17.9487 161.976 18.7118 160.543 18.7118H158.656V14.5314ZM169.891 22.4195C169.457 23.2435 168.5 23.7635 167.468 23.7635C165.94 23.7635 164.874 22.8585 164.874 21.4943C164.874 20.1436 165.906 19.3669 167.814 19.2521L169.864 19.1305V18.5497C169.864 17.692 169.301 17.226 168.296 17.226C167.468 17.226 166.864 17.6515 166.741 18.2999H165.261C165.309 16.9356 166.599 15.9429 168.344 15.9429C170.224 15.9429 171.446 16.9221 171.446 18.4417V23.6824H169.925V22.4195H169.891ZM167.909 22.5141C167.033 22.5141 166.477 22.0954 166.477 21.4538C166.477 20.7919 167.013 20.407 168.038 20.3462L169.864 20.2314V20.8257C169.864 21.8117 169.022 22.5141 167.909 22.5141ZM176.49 24.0944C175.832 25.9381 175.078 26.5459 173.476 26.5459C173.354 26.5459 172.946 26.5324 172.851 26.5054V25.2425C172.953 25.256 173.204 25.2695 173.333 25.2695C174.06 25.2695 174.467 24.9656 174.718 24.1754L174.868 23.7095L172.084 16.0442H173.802L175.737 22.2642H175.77L177.705 16.0442H179.375L176.49 24.0944Z" fill="black"/>
<rect x="201.5" y="0.5" width="55" height="37" rx="3.5" fill="white" stroke="#F3F3F3"/>
<path fill-rule="evenodd" clip-rule="evenodd" d="M227.955 22.9123V18.6268V18.6259H230.311C231.282 18.6265 232.099 18.3261 232.76 17.7249C233.429 17.1543 233.802 16.3338 233.783 15.4787C233.797 14.6283 233.424 13.8139 232.76 13.2451C232.105 12.6406 231.223 12.3107 230.311 12.3289H226.529V22.9123H227.955ZM227.955 17.3263V13.6319V13.631H230.346C230.879 13.6167 231.393 13.8212 231.757 14.1926C232.124 14.5322 232.331 14.9987 232.331 15.4859C232.331 15.973 232.124 16.4395 231.757 16.7791C231.389 17.1427 230.877 17.3413 230.346 17.3263H227.955Z" fill="#5F6368"/>
<path fill-rule="evenodd" clip-rule="evenodd" d="M239.566 16.2404C238.956 15.7033 238.124 15.4348 237.07 15.4348C235.716 15.4348 234.693 15.9076 234.002 16.8534L235.258 17.6075C235.722 16.9669 236.353 16.6465 237.149 16.6465C237.657 16.6409 238.149 16.8179 238.526 17.1422C238.902 17.4386 239.118 17.8804 239.115 18.3456V18.6563C238.567 18.3608 237.869 18.213 237.023 18.213C236.031 18.2141 235.237 18.4359 234.643 18.8784C234.049 19.3209 233.752 19.9168 233.752 20.6661C233.739 21.3484 234.05 21.9999 234.597 22.4394C235.161 22.9123 235.861 23.1488 236.698 23.1488C237.678 23.1488 238.463 22.735 239.054 21.9074H239.116V22.9123H240.48V18.4494C240.481 17.5138 240.176 16.7774 239.566 16.2404ZM235.698 21.5823C235.399 21.377 235.223 21.0467 235.224 20.6956C235.224 20.3013 235.418 19.9728 235.809 19.7026C236.196 19.4363 236.679 19.3032 237.258 19.3032C238.054 19.3032 238.674 19.472 239.118 19.8098C239.118 20.3807 238.882 20.878 238.41 21.302C237.984 21.7077 237.407 21.936 236.806 21.937C236.404 21.9441 236.013 21.8188 235.698 21.5823Z" fill="#5F6368"/>
<path fill-rule="evenodd" clip-rule="evenodd" d="M248.31 15.6712L243.548 26.1043H242.076L243.843 22.4538L240.712 15.6712H242.262L244.525 20.873H244.556L246.758 15.6712H248.31Z" fill="#5F6368"/>
<path fill-rule="evenodd" clip-rule="evenodd" d="M222.192 17.7029C222.192 17.2886 222.156 16.875 222.082 16.4667H216.067V18.8083H219.512C219.37 19.5641 218.91 20.2315 218.238 20.656V22.176H220.294C221.498 21.1179 222.192 19.5531 222.192 17.7029Z" fill="#4285F4"/>
<path fill-rule="evenodd" clip-rule="evenodd" d="M216.067 23.6444C217.788 23.6444 219.238 23.1057 220.294 22.1768L218.238 20.6568C217.666 21.0267 216.929 21.2378 216.067 21.2378C214.404 21.2378 212.992 20.1687 212.487 18.7281H210.369V20.2945C211.452 22.3482 213.656 23.6443 216.067 23.6444Z" fill="#34A853"/>
<path fill-rule="evenodd" clip-rule="evenodd" d="M212.487 18.7281C212.22 17.9732 212.22 17.1557 212.487 16.4008V14.8344H210.369C209.464 16.5521 209.464 18.5768 210.369 20.2945L212.487 18.7281Z" fill="#FBBC04"/>
<path fill-rule="evenodd" clip-rule="evenodd" d="M216.067 13.8911C216.977 13.877 217.856 14.2046 218.514 14.8031V14.8031L220.334 13.0678C219.18 12.0343 217.651 11.4668 216.067 11.4845C213.656 11.4846 211.452 12.7807 210.369 14.8344L212.487 16.4008C212.992 14.9602 214.404 13.8911 216.067 13.8911Z" fill="#EA4335"/>
<rect x="268.5" y="0.5" width="54.0345" height="37" rx="3.5" fill="#006FCF" stroke="#F3F3F3"/>
<path fill-rule="evenodd" clip-rule="evenodd" d="M279.257 27.4491V19.6263H288.104L289.053 20.7848L290.033 19.6263H322.146V26.9096C322.146 26.9096 321.306 27.4413 320.335 27.4491H302.553L301.483 26.2159V27.4491H297.976V25.3441C297.976 25.3441 297.497 25.6379 296.462 25.6379H295.268V27.4491H289.958L289.01 26.2658L288.048 27.4491H279.257ZM268.949 13.7303L270.939 9.37573H274.382L275.511 11.815V9.37573H279.791L280.463 11.1387L281.115 9.37573H300.324V10.2621C300.324 10.2621 301.334 9.37573 302.993 9.37573L309.226 9.39617L310.336 11.8035V9.37573H313.917L314.903 10.7585V9.37573H318.517V17.1985H314.903L313.958 15.8112V17.1985H308.697L308.168 15.9654H306.753L306.233 17.1985H302.665C301.237 17.1985 300.324 16.3303 300.324 16.3303V17.1985H294.944L293.876 15.9654V17.1985H273.872L273.343 15.9654H271.933L271.408 17.1985H268.949V13.7303ZM268.959 16.1976L271.644 10.3401H273.679L276.361 16.1976H274.575L274.082 15.0247H271.202L270.707 16.1976H268.959ZM273.515 13.753L272.637 11.7033L271.757 13.753H273.515ZM276.546 16.1966V10.3391L279.03 10.3478L280.475 14.1243L281.885 10.3391H284.349V16.1966H282.788V11.8806L281.134 16.1966H279.766L278.107 11.8806V16.1966H276.546ZM285.417 16.1966V10.3391H290.509V11.6494H286.994V12.6513H290.427V13.8844H286.994V14.9249H290.509V16.1966H285.417ZM291.412 16.1976V10.3401H294.885C296.036 10.3401 297.067 11.0078 297.067 12.2404C297.067 13.2941 296.198 13.9728 295.355 14.0396L297.408 16.1976H295.501L293.63 14.1166H292.973V16.1976H291.412ZM294.757 11.6503H292.973V12.8835H294.78C295.093 12.8835 295.496 12.6561 295.496 12.2669C295.496 11.9644 295.185 11.6503 294.757 11.6503ZM299.297 16.1966H297.704V10.3391H299.297V16.1966ZM303.075 16.1966H302.731C301.067 16.1966 300.057 14.9663 300.057 13.2919C300.057 11.5762 301.056 10.3391 303.158 10.3391H304.882V11.7264H303.095C302.241 11.7264 301.638 12.3511 301.638 13.3064C301.638 14.4408 302.328 14.9172 303.322 14.9172H303.732L303.075 16.1966ZM303.786 16.1976L306.471 10.3401H308.507L311.189 16.1976H309.402L308.909 15.0247H306.03L305.534 16.1976H303.786ZM308.342 13.753L307.464 11.7033L306.584 13.753H308.342ZM311.371 16.1966V10.3391H313.355L315.888 14.0193V10.3391H317.449V16.1966H315.529L312.931 12.4201V16.1966H311.371ZM280.324 26.4472V20.5897H285.417V21.8999H281.901V22.9019H285.335V24.135H281.901V25.1755H285.417V26.4472H280.324ZM305.277 26.4472V20.5897H310.369V21.8999H306.854V22.9019H310.27V24.135H306.854V25.1755H310.369V26.4472H305.277ZM285.614 26.4472L288.094 23.5546L285.555 20.5897H287.521L289.033 22.4226L290.55 20.5897H292.439L289.934 23.5184L292.418 26.4472H290.452L288.984 24.6432L287.552 26.4472H285.614ZM292.603 26.4481V20.5907H296.05C297.465 20.5907 298.291 21.4461 298.291 22.5608C298.291 23.9065 297.238 24.5984 295.848 24.5984H294.205V26.4481H292.603ZM295.935 21.9154H294.205V23.2641H295.93C296.386 23.2641 296.705 22.9807 296.705 22.5897C296.705 22.1736 296.384 21.9154 295.935 21.9154ZM298.969 26.4472V20.5897H302.441C303.592 20.5897 304.623 21.2574 304.623 22.49C304.623 23.5437 303.754 24.2224 302.911 24.2891L304.965 26.4472H303.057L301.186 24.3662H300.529V26.4472H298.969ZM302.313 21.8999H300.529V23.1331H302.336C302.649 23.1331 303.052 22.9056 303.052 22.5165C303.052 22.214 302.741 21.8999 302.313 21.8999ZM311.092 26.4472V25.1755H314.215C314.677 25.1755 314.877 24.9411 314.877 24.6841C314.877 24.4379 314.678 24.189 314.215 24.189H312.803C311.577 24.189 310.894 23.4876 310.894 22.4346C310.894 21.4954 311.519 20.5897 313.342 20.5897H316.381L315.724 21.9076H313.096C312.593 21.9076 312.439 22.155 312.439 22.3913C312.439 22.6341 312.63 22.9019 313.014 22.9019H314.492C315.86 22.9019 316.453 23.6298 316.453 24.583C316.453 25.6078 315.792 26.4472 314.418 26.4472H311.092ZM316.591 26.4472V25.1755H319.714C320.176 25.1755 320.376 24.9411 320.376 24.6841C320.376 24.4379 320.176 24.189 319.714 24.189H318.302C317.076 24.189 316.392 23.4876 316.392 22.4346C316.392 21.4954 317.018 20.5897 318.841 20.5897H321.88L321.223 21.9076H318.595C318.092 21.9076 317.938 22.155 317.938 22.3913C317.938 22.6341 318.129 22.9019 318.512 22.9019H319.991C321.358 22.9019 321.952 23.6298 321.952 24.583C321.952 25.6078 321.291 26.4472 319.916 26.4472H316.591Z" fill="white"/>
</svg>
